<svg xmlns="http://www.w3.org/2000/svg" width="30.129" height="21.232" viewBox="0 0 30.129 21.232">
  <g id="email_icon" transform="translate(732.233 327.033)">
    <path id="Path_5042" data-name="Path 5042" d="M-458.509-289.379l-.245.75-9.1-9.038,9.116-9.043.229.7Z" transform="translate(-243.595 -18.725)"/>
    <path id="Path_5043" data-name="Path 5043" d="M-712.838-326.817c.356-.077.657-.147.959-.205a1.567,1.567,0,0,1,.294-.008q12.282,0,24.563.007a9.018,9.018,0,0,1,1.2.159l.013.107c-.071.074-.141.15-.213.223l-12.42,12.482a1.056,1.056,0,0,1-1.706.009l-12.44-12.5C-712.654-326.615-712.717-326.688-712.838-326.817Z" transform="translate(-17.87)"/>
    <path id="Path_5044" data-name="Path 5044" d="M-694.487-175.189l9.138,9.066c-.358.079-.656.151-.957.207a1.931,1.931,0,0,1-.352.009h-24.47a2.638,2.638,0,0,1-1.271-.26l9.1-9.033c.028.026.106.1.18.169q1.08,1.085,2.159,2.171a2.787,2.787,0,0,0,4.131,0C-696.035-173.649-695.242-174.437-694.487-175.189Z" transform="translate(-18.275 -139.899)"/>
    <path id="Path_5045" data-name="Path 5045" d="M-732.026-289.232a5.739,5.739,0,0,1-.2-1.06q-.019-8,0-16a5.969,5.969,0,0,1,.2-1.073l9.134,9.072Z" transform="translate(0 -18.121)"/>
  </g>
</svg>
