<svg xmlns="http://www.w3.org/2000/svg" width="22.311" height="7.992" viewBox="0 0 22.311 7.992">
  <path id="Path_3" data-name="Path 3" d="M3.441-27.639A9.086,9.086,0,0,1,5.106-32.3a4.551,4.551,0,0,1,3.885-2,7.112,7.112,0,0,1,3,.611,22.229,22.229,0,0,1,3,1.721,33.318,33.318,0,0,0,3,1.609,5.882,5.882,0,0,0,2.442.5q3.108,0,3.885-5.439l1.443.333A9.086,9.086,0,0,1,24.087-30.3a4.551,4.551,0,0,1-3.885,2,7.025,7.025,0,0,1-2.83-.555,24.151,24.151,0,0,1-3.053-1.665,22.4,22.4,0,0,0-2.775-1.554,6.362,6.362,0,0,0-2.664-.555q-3.108,0-3.885,5.328Z" transform="translate(-3.441 35.298)"/>
</svg>
