<svg xmlns="http://www.w3.org/2000/svg" width="22.566" height="30.729" viewBox="0 0 22.566 30.729">
  <g id="location_icon" transform="translate(-233.838 390.521)">
    <path id="Path_5046" data-name="Path 5046" d="M245.143-390.521a11.328,11.328,0,0,1,11.136,9.479,9.835,9.835,0,0,1-.6,5.2,41.512,41.512,0,0,1-3.938,7.512,97.944,97.944,0,0,1-5.728,8.046,1.028,1.028,0,0,1-1.734.03,85.238,85.238,0,0,1-7.955-11.813,23.159,23.159,0,0,1-2.216-5.322,9.441,9.441,0,0,1,.667-6.3,11.089,11.089,0,0,1,8.581-6.68,6.275,6.275,0,0,1,.635-.077C244.376-390.474,244.759-390.5,245.143-390.521Zm-4.112,10.238a4.1,4.1,0,0,0,4.083,4.1,4.106,4.106,0,0,0,4.121-4.066,4.1,4.1,0,0,0-4.068-4.12A4.1,4.1,0,0,0,241.031-380.283Z"/>
  </g>
</svg>
