<svg xmlns="http://www.w3.org/2000/svg" width="32.129" height="32.177" viewBox="0 0 32.129 32.177">
  <path id="phone_icon" d="M-265.345-366.637a16.183,16.183,0,0,1-4.214-.987c-3.123-1.155-8.458-5.007-8.458-5.007s-6.586-6.381-8.856-10.436a21.21,21.21,0,0,1-2.49-6.748,2.664,2.664,0,0,1,.328-1.983,26.386,26.386,0,0,1,5.308-6.3c.136-.115.287-.212.432-.316a1.8,1.8,0,0,1,2.465.2,1.538,1.538,0,0,1,.3.315,41.176,41.176,0,0,1,3.963,6.511,9.071,9.071,0,0,1,.4,1.1,1.582,1.582,0,0,1-.346,1.626c-.519.551-1.088,1.056-1.657,1.556-.752.66-.77.653-.374,1.577a14.664,14.664,0,0,0,8.414,8.16.608.608,0,0,0,.843-.2c.451-.581.952-1.125,1.447-1.671a1.984,1.984,0,0,1,2.481-.56,35.64,35.64,0,0,1,3.216,1.632c1.312.782,2.565,1.663,3.833,2.516a2.377,2.377,0,0,1,.972,1.438,1.217,1.217,0,0,1-.115.969,7.119,7.119,0,0,1-.709,1.052,25.386,25.386,0,0,1-6.424,5.259A4.414,4.414,0,0,1-265.345-366.637Z" transform="translate(289.422 398.814)"/>
</svg>
