<svg xmlns="http://www.w3.org/2000/svg" width="19.886" height="15.28" viewBox="0 0 19.886 15.28">
  <g id="Group_33" data-name="Group 33" transform="translate(-131.358 -372.058)">
    <g id="Group_136" data-name="Group 136" transform="translate(131.358 378.974)">
      <rect id="Rectangle_8" data-name="Rectangle 8" width="16.878" height="1.444" rx="0.722" fill="#fff"/>
    </g>
    <g id="Group_137" data-name="Group 137" transform="translate(140 372.058)">
      <path id="Path_1" data-name="Path 1" d="M255.212,387.31h0a.719.719,0,0,1-.467-.969,12.229,12.229,0,0,1,1.848-3.025A11.88,11.88,0,0,1,261.8,379.7a11.88,11.88,0,0,1-5.209-3.619,12.221,12.221,0,0,1-1.848-3.025.719.719,0,0,1,.467-.969h0a.72.72,0,0,1,.863.418,10.612,10.612,0,0,0,9.118,6.469h0a.677.677,0,0,1,.739.674v.1a.677.677,0,0,1-.736.674h0a10.612,10.612,0,0,0-9.119,6.469A.72.72,0,0,1,255.212,387.31Z" transform="translate(-254.688 -372.058)" fill="#fff"/>
    </g>
  </g>
</svg>
